<svg xmlns="http://www.w3.org/2000/svg" width="241" height="68.535" viewBox="0 0 241 68.535"><g id="Logotipo-Horizontal-fundo_claro" data-name="Logotipo-Horizontal-fundo claro" transform="translate(-49.83 -49.82)"><g id="Grupo_1" data-name="Grupo 1" transform="translate(49.83 49.82)"><path id="Caminho_1" data-name="Caminho 1" d="M115.706,156.987v5.271H89.347A10.547,10.547,0,0,1,78.8,151.711V146.44h26.359A10.541,10.541,0,0,1,115.7,156.981Z" transform="translate(-62.993 -93.722)" fill="#e2e868"></path><path id="Caminho_2" data-name="Caminho 2" d="M65.642,89.357v26.359H60.371A10.543,10.543,0,0,1,49.83,105.169V78.81H55.1A10.547,10.547,0,0,1,65.647,89.357Z" transform="translate(-49.83 -62.992)" fill="#e2e868"></path><path id="Caminho_3" data-name="Caminho 3" d="M106.046,60.367v5.271H79.687A10.547,10.547,0,0,1,69.14,55.091V49.82H95.5a10.547,10.547,0,0,1,10.547,10.547Z" transform="translate(-58.604 -49.82)" fill="#e2e868"></path><path id="Caminho_4" data-name="Caminho 4" d="M152.6,89.357v26.359h-5.271a10.547,10.547,0,0,1-10.547-10.547V78.81h5.271A10.547,10.547,0,0,1,152.6,89.357Z" transform="translate(-89.338 -62.992)" fill="#e2e868"></path></g><g id="Grupo_2" data-name="Grupo 2" transform="translate(134.177 65.637)"><path id="Caminho_5" data-name="Caminho 5" d="M264.488,96.14a15.547,15.547,0,0,0-10.138,4.387.69.69,0,0,0-.087.944.768.768,0,0,0,1.015.186,16.784,16.784,0,0,1,6.76-1.664c3.978,0,5.7,1.588,5.7,7.219v1.222c-1.288,0-2.881.06-4.229.18-6.176.677-11.316,2.635-11.316,8.566,0,4.4,2.63,6.793,7.47,6.793a11.916,11.916,0,0,0,8.075-3.132,2.7,2.7,0,0,0,2.706,2.706h2.493V106.479c0-7.65-2.935-10.339-8.446-10.339Zm3.246,22.943a9.037,9.037,0,0,1-5.085,1.653c-2.875,0-4.583-1.108-4.583-4.469s2.319-4.894,5.44-5.505a33.671,33.671,0,0,1,4.229-.431Z" transform="translate(-226.126 -86.684)" fill="#072b31"></path><path id="Caminho_6" data-name="Caminho 6" d="M371.536,96.14c-7.911,0-13.706,5.314-13.706,13.891s5.8,13.951,13.706,13.951,13.706-5.314,13.706-13.951S379.382,96.14,371.536,96.14Zm0,25.606c-5.194,0-7.731-4.289-7.731-11.714s2.3-11.654,7.731-11.654c5.014,0,7.731,4.048,7.731,11.654C379.267,117.1,377.03,121.746,371.536,121.746Z" transform="translate(-274.127 -86.684)" fill="#072b31"></path><path id="Caminho_7" data-name="Caminho 7" d="M451.1,96.135c-3.672,0-6.973,2.324-9.237,4.529-1.162-3.186-3.306-4.529-7.1-4.529-3.547,0-6.482,2.144-8.686,4.283a3.247,3.247,0,0,0-3.246-3.246H420.75v26.375h5.325V101.941a12.83,12.83,0,0,1,6.3-1.708c3.934,0,5,1.73,5.02,7.028v16.287h5.325V106.409a18.925,18.925,0,0,0-.491-4.523,14.327,14.327,0,0,1,6.482-1.653c3.934,0,5.293,1.73,5.325,7.028v16.287h5.331V106.409c0-7.279-2.63-10.279-8.261-10.279Z" transform="translate(-302.716 -86.68)" fill="#072b31"></path><path id="Caminho_8" data-name="Caminho 8" d="M210.351,78.81H204.42v36.873h21.47v-2.815H210.351Z" transform="translate(-204.42 -78.81)" fill="#072b31"></path><path id="Caminho_9" data-name="Caminho 9" d="M316.562,96.255c-8.075,0-14.012,5.44-14.012,14.868,0,8.812,4.649,12.909,10.7,12.909a11.518,11.518,0,0,0,8.015-3.607v1.73c0,4.894-1.157,11.622-8.741,11.622a15.27,15.27,0,0,1-6.144-1.086.824.824,0,0,0-1.053.316.87.87,0,0,0,.115,1.037c1.293,1.517,4.032,2.854,7.742,2.854,10.9,0,13.4-8.075,13.4-14.814l.016-24.029a24.609,24.609,0,0,0-10.045-1.806Zm4.709,22.7a11.63,11.63,0,0,1-5.691,1.408c-4.343,0-7.284-2.39-7.284-10.159s2.815-11.567,8.141-11.567a7.368,7.368,0,0,1,4.834,1.473Z" transform="translate(-249.008 -86.734)" fill="#072b31"></path></g></g></svg>