<svg xmlns="http://www.w3.org/2000/svg" width="192" height="76.236" viewBox="0 0 192 76.236"><g transform="translate(-49.82 -49.83)"><g transform="translate(49.82 49.83)"><g transform="translate(165.886)"><path d="M347.231,94.114a3.966,3.966,0,0,1-3.961-3.961V88.47h10.782a3.966,3.966,0,0,1,3.961,3.961V94.12H347.231Z" transform="translate(-336.443 -65.728)" fill="#e2e868"></path><path d="M335.631,76.163A3.966,3.966,0,0,1,331.67,72.2V61.42h1.683a3.966,3.966,0,0,1,3.961,3.961V76.163h-1.689Z" transform="translate(-331.67 -54.599)" fill="#e2e868"></path><path d="M343.361,55.474a3.966,3.966,0,0,1-3.961-3.961V49.83h10.782a3.966,3.966,0,0,1,3.961,3.961v1.683Z" transform="translate(-334.85 -49.83)" fill="#e2e868"></path><path d="M370.411,76.163A3.966,3.966,0,0,1,366.45,72.2V61.42h1.683a3.966,3.966,0,0,1,3.961,3.961V76.163Z" transform="translate(-345.98 -54.599)" fill="#e2e868"></path></g><g transform="translate(0 22.824)"><path d="M105.3,135.262c-5.038,0-7.7-2.413-7.7-6.974,0-5.173,3.779-8,11.895-8.893,1.365-.124,3.061-.194,4.52-.194h.353v-1.672c0-5.933-1.76-8.14-6.5-8.14a18.361,18.361,0,0,0-7.445,1.83.8.8,0,0,1-.33.082.374.374,0,0,1-.324-.159.4.4,0,0,1,.053-.577,16.533,16.533,0,0,1,10.688-4.626c6.139,0,8.758,3.231,8.758,10.8V134.8h-2.337a2.542,2.542,0,0,1-2.566-2.566v-.783l-.589.518a12.532,12.532,0,0,1-8.481,3.29ZM114,120.548a35.5,35.5,0,0,0-4.608.471c-4.085.8-6.156,2.913-6.156,6.286s1.683,5.173,5.3,5.173a10.1,10.1,0,0,0,5.7-1.854l.141-.106V120.53Z" transform="translate(-69.479 -95.74)" fill="#fff"></path><path d="M217.671,135.258c-8.77,0-14.431-5.768-14.431-14.7s5.8-14.632,14.431-14.632,14.431,5.6,14.431,14.632S226.3,135.258,217.671,135.258Zm0-27.609c-5.68,0-8.681,4.467-8.681,12.919s3,12.984,8.681,12.984,8.681-4.491,8.681-12.984S223.269,107.649,217.671,107.649Z" transform="translate(-112.943 -95.736)" fill="#fff"></path><path d="M302.062,134.813V117.6c-.029-5.856-1.624-7.934-6.092-7.934a15.965,15.965,0,0,0-7.145,1.813l-.259.124.071.283a20.053,20.053,0,0,1,.518,4.8v18.134h-5.038V117.6c-.029-6.009-1.43-7.934-5.768-7.934a13.781,13.781,0,0,0-6.7,1.754l-.447.224v23.172H266.16V107.068h1.889a3.152,3.152,0,0,1,3.149,3.149v.836l.6-.583c3.131-3.043,6.115-4.52,9.129-4.52,3.943,0,6.133,1.395,7.328,4.656l.188.512.388-.383c2.242-2.184,5.744-4.785,9.717-4.785,6,0,8.558,3.208,8.558,10.735v18.134h-5.044Z" transform="translate(-138.831 -95.744)" fill="#fff"></path><path d="M49.82,127.679V88.61h5.7v36.738H72.279v2.331Z" transform="translate(-49.82 -88.61)" fill="#fff"></path><path d="M159.08,149.2c-4.108,0-6.868-1.53-8.087-2.955a.606.606,0,0,1-.1-.7.5.5,0,0,1,.441-.259.793.793,0,0,1,.277.053,16.9,16.9,0,0,0,6.751,1.195c6.492,0,9.782-4.338,9.782-12.889v-2.7l-.6.583a11.966,11.966,0,0,1-8.4,3.79c-7.01,0-11.194-5.073-11.194-13.572,0-9.529,5.791-15.685,14.761-15.685a27.132,27.132,0,0,1,10.494,1.819c-.006.212-.006.5-.006.889l-.018,24.808c0,5.833-1.83,15.626-14.1,15.626Zm3.5-41.276c-5.891,0-9.134,4.555-9.134,12.831,0,7.716,2.607,11.312,8.21,11.312a12.9,12.9,0,0,0,6.3-1.56l.182-.1V109.691l-.129-.106A8.451,8.451,0,0,0,162.582,107.92Z" transform="translate(-90.195 -95.79)" fill="#fff"></path></g></g></g></svg>